<svg xmlns="http://www.w3.org/2000/svg" version="1.1" xmlns:xlink="http://www.w3.org/1999/xlink" xmlns:svgjs="http://svgjs.dev/svgjs" width="1000" height="1000" viewBox="0 0 1000 1000"><rect width="1000" height="1000" fill="#ffbe79"></rect><g transform="matrix(0.7,0,0,0.7,149.5908006658571,230.36851336106866)"><svg viewBox="0 0 320 247" data-background-color="#ffbe79" preserveAspectRatio="xMidYMid meet" height="771" width="1000" xmlns="http://www.w3.org/2000/svg" xmlns:xlink="http://www.w3.org/1999/xlink"><g id="tight-bounds" transform="matrix(1,0,0,1,0.1870625527510299,-0.09999481159175616)"><svg viewBox="0 0 319.6258596973865 247.2" height="247.2" width="319.6258596973865"><g><svg viewBox="0 0 319.6258596973865 247.2" height="247.2" width="319.6258596973865"><g><svg viewBox="0 0 319.6258596973865 247.2" height="247.2" width="319.6258596973865"><g id="textblocktransform"><svg viewBox="0 0 319.6258596973865 247.2" height="247.2" width="319.6258596973865" id="textblock"><g><svg viewBox="0 0 319.6258596973865 247.2" height="247.2" width="319.6258596973865"><g transform="matrix(1,0,0,1,0,0)"><svg width="319.6258596973865" viewBox="-10.300000190734863 -34.599998474121094 52.14999771118164 36.349998474121094" height="247.2" data-palette-color="#374151"><g class="wordmark-text-0" data-fill-palette-color="primary" id="text-0"><path d="M23.5-34.4L23.5-34.4Q39.5-34.4 40.2-34.5 40.9-34.6 41.38-34.6 41.85-34.6 41.85-34.4 41.85-34.2 41.33-33.77 40.8-33.35 39.53-32.93 38.25-32.5 36.65-32.5L36.65-32.5 21.9-32.55Q15.45-32.45 9.58-30.8 3.7-29.15-0.05-26.85-3.8-24.55-6-22.15-8.2-19.75-8.2-18.05L-8.2-18.05Q-8.2-16-5.15-16-2.1-16 2.78-18.63 7.65-21.25 11.05-24.9L11.05-24.9Q11.6-25.45 11.8-25.45L11.8-25.45Q11.9-25.45 11.9-25.3 11.9-25.15 11.85-25.05L11.85-25.05Q10.4-21.65 5-17.88-0.4-14.1-5.35-14.1-10.3-14.1-10.3-16.95L-10.3-16.95Q-10.3-19.1-7.5-22.05-4.7-25-0.25-27.78 4.2-30.55 10.63-32.48 17.05-34.4 23.5-34.4ZM21-30.95L21.25-30.75Q21.25-30.6 17.75-24.1L17.75-24.1Q8.2-6.35 4.65 0.4L4.65 0.4Q4.35 1.05 3.55 1.4 2.75 1.75 2.33 1.75 1.9 1.75 1.9 1.53 1.9 1.3 6.15-6.5 10.4-14.3 14.63-22.03 18.85-29.75 18.75-29.8L18.75-29.8Q19.05-30.3 19.75-30.55L19.75-30.55 21-30.95ZM21.95-4.7L21.95-4.7Q21.6-3.35 21.6-1.8 21.6-0.25 22.9-0.25L22.9-0.25Q23.25-0.25 24.07-0.63 24.9-1 25.02-1 25.15-1 25.15-0.9L25.15-0.9Q25.15-0.3 24.1 0.35 23.05 1 22 1L22 1Q19.9 1 19.9-1.8L19.9-1.8Q19.9-2.45 19.95-2.8L19.95-2.8Q15.95 0.7 13.82 0.7 11.7 0.7 11.7-0.75L11.7-0.75Q11.7-2.9 15.37-6.13 19.05-9.35 22.35-9.8L22.35-9.8Q25.2-15.65 29.37-20.75 33.55-25.85 35.8-25.85L35.8-25.85Q36.2-25.85 36.45-25.43 36.7-25 36.7-24.6L36.7-24.6Q36.7-22.95 31.82-16.3 26.95-9.65 21.95-4.7ZM34.85-23.85L34.85-23.85Q34.85-24.25 34.55-24.25L34.55-24.25Q33.7-24.25 31.32-21.45 28.95-18.65 26.35-14.33 23.75-10 22.5-6.4L22.5-6.4Q27.15-11.3 31-16.55 34.85-21.8 34.85-23.85ZM14.1-1.15L14.1-1.15Q14.1-0.4 14.95-0.4L14.95-0.4Q16.3-0.4 20.2-4.15L20.2-4.15Q20.85-6.45 21.75-8.4L21.75-8.4Q19.3-7.8 16.7-5.2 14.1-2.6 14.1-1.15Z" fill="#374151" data-fill-palette-color="primary"></path></g></svg></g></svg></g></svg></g></svg></g></svg></g><defs></defs></svg><rect width="319.6258596973865" height="247.2" fill="none" stroke="none" visibility="hidden"></rect></g></svg></g></svg>